<?xml version="1.0" encoding="UTF-8"?>
<svg xmlns="http://www.w3.org/2000/svg" width="640" height="200" viewBox="0 0 640 200" role="img" aria-labelledby="banner-title banner-desc">
  <title id="banner-title">api_candidatos banner</title>
  <desc id="banner-desc">News, NLP, and political text analysis.</desc>
  <defs>
    <linearGradient id="banner-bg" x1="0%" y1="0%" x2="100%" y2="100%">
      <stop offset="0%" stop-color="#0f172a"/>
      <stop offset="100%" stop-color="#1e3a5f"/>
    </linearGradient>
    <linearGradient id="banner-accent" x1="0%" y1="0%" x2="100%" y2="0%">
      <stop offset="0%" stop-color="#38bdf8"/>
      <stop offset="100%" stop-color="#0071c5"/>
    </linearGradient>
    <filter id="banner-glow" x="-20%" y="-20%" width="140%" height="140%">
      <feGaussianBlur stdDeviation="2" result="blur"/>
      <feMerge>
        <feMergeNode in="blur"/>
        <feMergeNode in="SourceGraphic"/>
      </feMerge>
    </filter>
  </defs>
  <rect width="640" height="200" rx="16" fill="url(#banner-bg)"/>
  <rect x="24" y="24" width="592" height="152" rx="12" fill="none" stroke="url(#banner-accent)" stroke-width="1.5" opacity="0.55"/>
  <g transform="translate(56 56)" fill="none" stroke="#e2e8f0" stroke-width="3" stroke-linecap="round">
    <rect x="0" y="8" width="72" height="88" rx="6"/>
    <path d="M12 28h48M12 44h36M12 60h48"/>
  </g>
  <g transform="translate(156 48)" stroke="#38bdf8" stroke-width="2.5" fill="none" filter="url(#banner-glow)">
    <circle cx="40" cy="40" r="28"/>
    <path d="M24 40c8-16 24-16 32 0M24 40c8 16 24 16 32 0" opacity="0.85"/>
    <circle cx="40" cy="40" r="6" fill="#38bdf8" stroke="none"/>
  </g>
  <g transform="translate(268 60)" fill="url(#banner-accent)">
    <rect x="0" y="48" width="18" height="40" rx="4" opacity="0.9"/>
    <rect x="28" y="28" width="18" height="60" rx="4" opacity="0.75"/>
    <rect x="56" y="12" width="18" height="76" rx="4" opacity="0.95"/>
  </g>
  <g transform="translate(392 52)" fill="none" stroke="#94a3b8" stroke-width="2">
    <path d="M8 88c12-36 40-52 72-48 28 3 48 22 56 46 6 18 4 36-8 52" opacity="0.7"/>
    <circle cx="96" cy="36" r="5" fill="#fbbf24" stroke="none"/>
  </g>
  <text x="320" y="118" text-anchor="middle" fill="#f8fafc" font-family="Segoe UI, Helvetica, Arial, sans-serif" font-size="26" font-weight="700">api_candidatos</text>
  <text x="320" y="148" text-anchor="middle" fill="#94a3b8" font-family="Segoe UI, Helvetica, Arial, sans-serif" font-size="13">FastAPI + NLP + PT-BR news</text>
</svg>
